# xmcd
#
# Track frame offsets: 
#        150
#        29346
#        75077
#        100149
#        124610
#        179776
#        208844
#        230384
#        251777
#
# Disc length: 3655 seconds
#
# Revision: 0
# Processed by: cddbd v1.5.2PL0 Copyright (c) Steve Scherf et al.
# Submitted via: ExactAudioCopy v0.99pb3
#
DISCID=720e4509
DTITLE=Tom Waits - Berlin Theater des Westens Nov. 15. 2004 [CD1]
DYEAR=2004
DGENRE=Blues
TTITLE0=Make It Rain
TTITLE1=Don't Go Into That Barn
TTITLE2=Lost At The Bottom Of The World
TTITLE3=Hoist That Rag
TTITLE4=Sins Of The  Father
TTITLE5=Top Of The Hill
TTITLE6=Tampled Rose
TTITLE7=All The Word Is Green
TTITLE8=Misery Is The River Of The World
EXTD=
EXTT0=
EXTT1=
EXTT2=
EXTT3=
EXTT4=
EXTT5=
EXTT6=
EXTT7=
EXTT8=
PLAYORDER=
